mtllib old_television.mtl
o Plane002
v -20.137695 23.856709 29.318821
v 4.664062 23.856709 29.318821
v 4.664062 42.915722 29.318821
v -20.137695 42.915722 29.318821
v -49.041725 65.814163 32.744652
v -50.000000 66.772430 32.744652
v -50.000000 0.000000 32.744652
v -49.041725 0.958271 32.744652
v 31.265553 0.000000 32.744652
v 31.265553 0.958271 32.744652
v 49.041725 0.958271 32.744652
v 50.000000 0.000000 32.744652
v 50.000000 66.772430 32.744652
v 49.041725 65.814163 32.744652
v 31.265553 66.772430 32.744652
v 31.265553 65.814163 32.744652
v -47.890457 64.585938 31.212276
v -47.890457 2.186493 31.212276
v 31.265553 1.824167 31.664198
v 30.686371 2.186493 31.212276
v 48.023655 2.186493 31.212276
v 48.023655 64.585938 31.212276
v 31.265553 64.948257 31.664194
v 31.844828 64.585938 31.212276
v 31.844828 2.186493 31.212276
v 30.686371 64.585938 31.212276
v -44.939453 4.797596 26.457510
v -44.939453 23.856705 26.457512
v -44.939453 42.915722 26.457514
v -44.939453 61.974831 26.457514
v 31.083193 2.451069 30.730358
v 29.465914 4.797596 26.457510
v 4.664062 4.797596 26.457510
v -20.137695 4.797596 26.457510
v 29.465914 61.974831 26.457514
v 31.083193 64.321358 30.730362
v 4.664062 61.974831 26.457514
v -20.137695 61.974831 26.457514
v 29.465914 23.856705 26.457512
v 29.465914 42.915722 26.457514
v -50.000000 65.814163 11.527223
v -50.000000 0.958271 11.527218
v -50.000000 0.958271 32.744652
v -50.000000 65.814163 32.744652
v 50.000000 0.958271 11.527218
v 50.000000 65.814163 11.527223
v 50.000000 65.814163 32.744652
v 50.000000 0.958271 32.744652
v -49.041725 66.772430 11.527223
v -49.041725 66.772430 32.744652
v 49.041725 66.772430 32.744652
v 49.041725 66.772430 11.527223
v 49.041725 0.000000 11.527218
v 49.041725 0.000000 32.744652
v -49.041725 0.000000 32.744652
v -49.041725 0.000000 11.527218
v -32.445286 42.690720 -13.571126
v -32.558075 1.279583 -13.416080
v -49.438164 0.968616 9.796288
v -49.552773 65.227310 9.953929
v 31.484423 43.648991 -13.574766
v -31.484423 43.648991 -13.574766
v -48.596130 66.185577 9.956224
v 48.596130 66.185577 9.956224
v 32.558071 1.279583 -13.416080
v 32.445282 42.690720 -13.571126
v 49.552773 65.227310 9.953929
v 49.438164 0.968616 9.796288
v -31.602386 0.321308 -13.412439
v 31.602386 0.321308 -13.412439
v 48.478165 0.010345 9.793986
v -48.478165 0.010345 9.793986
v -27.707964 39.239975 -32.744652
v -27.707964 4.154022 -32.744652
v -31.783689 1.432522 -15.110686
v -31.783689 41.961472 -15.110686
v 26.749685 40.198250 -31.164747
v -26.749689 40.198250 -31.164747
v -30.825417 42.919746 -15.110686
v 30.825417 42.919746 -15.110686
v 27.707960 4.154022 -32.744652
v 27.707960 39.239975 -32.744652
v 31.783689 41.961472 -15.110686
v 31.783689 1.432522 -15.110686
v -26.749689 3.195747 -31.357262
v 26.749685 3.195747 -31.357262
v 30.825417 0.474247 -15.110686
v -30.825417 0.474247 -15.110686
v 43.263622 45.510822 32.176395
v 43.990086 43.274879 32.176395
v 44.799736 43.274883 31.170204
v 43.918598 45.986702 31.170204
v 41.361637 46.892651 32.176395
v 41.611843 47.662720 31.170204
v 39.010609 46.892651 32.176395
v 38.760406 47.662720 31.170204
v 37.108723 45.510822 32.176395
v 36.453648 45.986702 31.170204
v 36.382160 43.274879 32.176395
v 35.572514 43.274883 31.170204
v 37.108723 41.038940 32.176395
v 36.453648 40.563061 31.170204
v 39.010609 39.657108 32.176395
v 38.760406 38.887039 31.170204
v 41.361637 39.657108 32.176395
v 41.611843 38.887039 31.170204
v 43.263622 41.038940 32.176395
v 43.918598 40.563061 31.170204
v 42.685398 56.961815 31.811867
v 43.147957 55.538391 31.811867
v 43.663315 55.538391 31.171261
v 43.102436 57.264721 31.171261
v 41.474617 57.841507 31.811867
v 41.633884 58.331665 31.171261
v 39.977989 57.841507 31.811867
v 39.818722 58.331665 31.171261
v 38.767208 56.961815 31.811867
v 38.350166 57.264721 31.171261
v 38.304649 55.538391 31.811867
v 37.789196 55.538391 31.171261
v 38.767208 54.114971 31.811867
v 38.350166 53.812065 31.171261
v 39.977989 53.235275 31.811867
v 39.818722 52.745117 31.171261
v 41.474617 53.235275 31.811867
v 41.633884 52.745117 31.171261
v 42.685398 54.114971 31.811867
v 43.102436 53.812065 31.171261
vt 0.3177 0.6512
vt 0.1847 0.8043
vt 0.1847 0.6512
vt 0.0245 0.9960
vt 0.0296 0.4673
vt 0.0296 0.9883
vt 0.4604 0.4596
vt 0.4604 0.4673
vt 0.5557 0.4673
vt 0.5608 0.9960
vt 0.5557 0.9883
vt 0.4604 0.9960
vt 0.4604 0.9883
vt 0.0358 0.4772
vt 0.0358 0.9784
vt 0.4572 0.4772
vt 0.5502 0.9784
vt 0.5502 0.4772
vt 0.4635 0.9784
vt 0.5608 0.4596
vt 0.4635 0.4772
vt 0.4572 0.9784
vt 0.0516 0.6512
vt 0.0516 0.8043
vt 0.0516 0.9574
vt 0.4507 0.4982
vt 0.3177 0.4982
vt 0.1847 0.4982
vt 0.0516 0.4982
vt 0.4507 0.9574
vt 0.3177 0.9574
vt 0.1847 0.9574
vt 0.4507 0.6512
vt 0.4594 0.4793
vt 0.4507 0.8043
vt 0.4594 0.9763
vt 0.3177 0.8043
vt 0.4604 0.4743
vt 0.4604 0.9813
vt 0.9252 0.4443
vt 0.9890 0.2260
vt 0.9890 0.4443
vt 0.4930 0.4462
vt 0.4294 0.2279
vt 0.4930 0.2279
vt 0.8158 0.5718
vt 0.6017 0.5138
vt 0.8159 0.5140
vt 0.6015 0.0225
vt 0.8155 0.0922
vt 0.6014 0.0919
vt 0.8329 0.3664
vt 0.9194 0.2260
vt 0.9200 0.4423
vt 0.7776 0.4121
vt 0.6027 0.5087
vt 0.6401 0.4120
vt 0.5856 0.3684
vt 0.4988 0.2279
vt 0.5851 0.2290
vt 0.6394 0.1738
vt 0.8143 0.0979
vt 0.7774 0.1741
vt 0.7693 0.2401
vt 0.8276 0.3640
vt 0.7693 0.3548
vt 0.7673 0.3592
vt 0.6415 0.4068
vt 0.6505 0.3591
vt 0.6478 0.3540
vt 0.5909 0.2295
vt 0.6478 0.2404
vt 0.6500 0.2352
vt 0.7757 0.1798
vt 0.7668 0.2354
vt 0.9252 0.2260
vt 0.8149 0.5089
vt 0.4982 0.4443
vt 0.6026 0.0976
vt 0.8335 0.2270
vt 0.8276 0.2275
vt 0.7761 0.4069
vt 0.5909 0.3659
vt 0.6411 0.1795
vt 0.8177 0.0237
vt 0.8176 0.0931
vt 0.5993 0.0927
vt 0.8179 0.5126
vt 0.5996 0.5702
vt 0.5996 0.5124
vt 0.7795 0.1750
vt 0.8164 0.0988
vt 0.6373 0.1747
vt 0.8170 0.5075
vt 0.6006 0.5073
vt 0.6380 0.4106
vt 0.7778 0.1806
vt 0.6390 0.1804
vt 0.7782 0.4055
vt 0.6394 0.4054
vt 0.6006 0.0984
vt 0.7797 0.4108
vt 0.5226 0.8230
vt 0.5302 0.8060
vt 0.5258 0.8266
vt 0.5132 0.8334
vt 0.5145 0.8393
vt 0.5004 0.8393
vt 0.5017 0.8334
vt 0.4923 0.8230
vt 0.4891 0.8266
vt 0.4887 0.8060
vt 0.4847 0.8060
vt 0.4891 0.7855
vt 0.4923 0.7891
vt 0.5004 0.7728
vt 0.5017 0.7786
vt 0.5132 0.7786
vt 0.5145 0.7728
vt 0.5258 0.7855
vt 0.5226 0.7891
vt 0.5262 0.8060
vt 0.5235 0.9051
vt 0.5233 0.9192
vt 0.5211 0.9167
vt 0.5155 0.9279
vt 0.5147 0.9239
vt 0.5060 0.9279
vt 0.5068 0.9239
vt 0.5004 0.9167
vt 0.4982 0.9192
vt 0.4980 0.9051
vt 0.4953 0.9051
vt 0.4982 0.8910
vt 0.5004 0.8935
vt 0.5060 0.8823
vt 0.5068 0.8863
vt 0.5155 0.8823
vt 0.5147 0.8863
vt 0.5211 0.8935
vt 0.5233 0.8910
vt 0.5262 0.9051
vt 0.0245 0.4596
vt 0.4294 0.4462
vt 0.6017 0.5716
vt 0.8156 0.0228
vt 0.5994 0.0233
vt 0.8179 0.5704
vn 0.0801 -0.0740 0.9940
vn -0.0711 0.0923 0.9932
vn -0.0548 -0.0771 0.9955
vn -0.0000 0.0000 1.0000
vn 0.7995 0.0000 0.6007
vn 0.8176 -0.0000 0.5758
vn 0.0000 0.7803 0.6254
vn 0.0555 0.8337 0.5495
vn 0.0000 0.8156 0.5787
vn -0.8329 0.0000 0.5534
vn -0.0000 -0.7803 0.6254
vn -0.0541 -0.7931 0.6067
vn -0.0541 0.7931 0.6067
vn 0.0542 -0.8260 0.5610
vn 0.0000 -0.8156 0.5787
vn 0.8497 -0.0000 0.5273
vn 0.0000 0.8765 0.4813
vn 0.0000 0.8765 0.4814
vn 0.0000 -0.8765 0.4814
vn 0.0000 -0.8765 0.4813
vn -0.2504 0.0000 0.9681
vn -0.9352 0.0000 0.3540
vn -0.7179 -0.0000 0.6961
vn -0.7179 -0.0000 0.6962
vn 0.0765 -0.0249 0.9968
vn 0.0542 0.0719 0.9959
vn -0.0764 0.0249 0.9968
vn -0.0381 0.1237 0.9916
vn 0.0381 -0.1237 0.9916
vn 0.1100 -0.0065 0.9939
vn 0.0043 0.1548 0.9879
vn -0.0551 0.0717 0.9959
vn -0.1100 0.0065 0.9939
vn -0.0043 -0.1548 0.9879
vn 0.0551 -0.0717 0.9959
vn 0.0119 0.8590 0.5119
vn -0.0011 0.7938 0.6081
vn 0.0119 -0.8590 0.5119
vn -0.0008 -0.7927 0.6096
vn -0.8997 0.3961 -0.1832
vn -0.9239 -0.3827 0.0000
vn -0.9239 0.3827 0.0000
vn 0.9012 0.3912 -0.1866
vn 0.9239 -0.3827 0.0000
vn 0.9179 -0.3685 -0.1470
vn -0.3827 0.9239 0.0000
vn 0.3841 0.9008 -0.2024
vn -0.3841 0.9008 -0.2024
vn 0.3827 -0.9239 0.0000
vn -0.4115 -0.9085 -0.0728
vn 0.4115 -0.9085 -0.0728
vn -0.7404 0.2676 -0.6165
vn -0.8373 -0.3475 -0.4222
vn -0.7843 0.3146 -0.5347
vn -0.2757 0.6958 -0.6632
vn 0.3076 0.7575 -0.5758
vn 0.2760 0.6956 -0.6633
vn 0.7400 0.2642 -0.6185
vn 0.8371 -0.3478 -0.4222
vn 0.7931 -0.3549 -0.4950
vn 0.3332 -0.9145 -0.2297
vn -0.3889 -0.8936 -0.2243
vn -0.3332 -0.9145 -0.2297
vn -0.5599 -0.4301 -0.7082
vn -0.8708 0.2988 -0.3905
vn -0.5259 0.4490 -0.7224
vn -0.1665 0.9163 -0.3642
vn 0.3750 0.8359 -0.4008
vn 0.1293 0.9405 -0.3143
vn 0.5542 0.4442 -0.7039
vn 0.8672 -0.3503 -0.3540
vn 0.5328 -0.4351 -0.7258
vn 0.1755 -0.9072 -0.3823
vn -0.3719 -0.8984 -0.2337
vn -0.1441 -0.9299 -0.3384
vn -0.9171 -0.3727 -0.1415
vn -0.3076 0.7575 -0.5758
vn 0.7839 0.3150 -0.5350
vn 0.3889 -0.8936 -0.2243
vn -0.7936 -0.3573 -0.4926
vn -0.8649 -0.3845 -0.3225
vn -0.3150 0.8482 -0.4259
vn 0.8743 0.2981 -0.3832
vn 0.3180 -0.9124 -0.2575
vn 0.9239 0.3827 0.0000
vn 0.4019 0.2920 0.8679
vn 0.7791 0.0000 0.6269
vn 0.6303 0.4579 0.6269
vn 0.1535 0.4725 0.8679
vn 0.2408 0.7409 0.6269
vn -0.2408 0.7409 0.6269
vn -0.1535 0.4725 0.8679
vn -0.4019 0.2920 0.8679
vn -0.6303 0.4579 0.6269
vn -0.4968 -0.0000 0.8679
vn -0.7791 0.0000 0.6269
vn -0.6303 -0.4579 0.6269
vn -0.4019 -0.2920 0.8679
vn -0.2408 -0.7409 0.6269
vn -0.1535 -0.4725 0.8679
vn 0.1535 -0.4725 0.8679
vn 0.2408 -0.7409 0.6269
vn 0.6303 -0.4579 0.6269
vn 0.4019 -0.2920 0.8679
vn 0.4968 -0.0000 0.8679
vn 0.4968 -0.0000 0.8678
vn 0.6303 0.4580 0.6269
vn 0.2408 0.7410 0.6268
vn 0.1535 0.4725 0.8678
vn -0.2408 0.7410 0.6268
vn -0.1535 0.4725 0.8678
vn -0.6303 0.4580 0.6269
vn -0.6303 -0.4580 0.6269
vn -0.2408 -0.7410 0.6268
vn -0.1535 -0.4725 0.8678
vn 0.2408 -0.7410 0.6268
vn 0.1535 -0.4725 0.8678
vn 0.6303 -0.4580 0.6269
vn 0.7792 -0.0000 0.6268
vn 0.0092 -0.0119 0.9999
vn -0.0092 0.0119 0.9999
vn 0.3827 0.9239 0.0000
vn -0.3827 -0.9239 0.0000
usemtl Material__26
s 1
f 2/1/1 4/2/2 1/3/3
f 6/4/4 8/5/4 5/6/4
f 8/5/4 9/7/4 10/8/4
f 11/9/4 13/10/4 14/11/4
f 14/11/4 15/12/4 16/13/4
f 5/6/5 18/14/6 17/15/6
f 10/8/7 20/16/8 18/14/9
f 10/8/7 18/14/9 8/5/7
f 11/9/10 22/17/10 21/18/10
f 16/13/11 24/19/12 22/17/11
f 16/13/11 22/17/11 14/11/11
f 11/9/4 9/7/4 12/20/4
f 15/12/4 5/6/4 16/13/4
f 25/21/13 10/8/7 21/18/7
f 21/18/7 10/8/7 11/9/7
f 26/22/14 16/13/11 17/15/15
f 17/15/15 16/13/11 5/6/11
f 18/14/6 28/23/16 17/15/6
f 17/15/6 29/24/16 30/25/16
f 20/16/8 32/26/17 18/14/9
f 18/14/9 33/27/18 34/28/17
f 18/14/9 34/28/17 27/29/17
f 35/30/19 26/22/14 17/15/15
f 37/31/20 17/15/15 38/32/19
f 17/15/15 30/25/19 38/32/19
f 21/18/4 24/19/21 25/21/21
f 39/33/22 31/34/23 40/35/22
f 40/35/22 36/36/24 35/30/22
f 39/33/25 3/37/26 2/1/1
f 29/24/27 1/3/3 4/2/2
f 3/37/26 38/32/28 4/2/2
f 1/3/3 33/27/29 2/1/1
f 40/35/30 37/31/31 3/37/26
f 39/33/25 33/27/29 32/26/32
f 28/23/33 34/28/34 1/3/3
f 29/24/27 38/32/28 30/25/35
f 31/34/36 19/38/37 25/21/13
f 36/36/38 23/39/39 26/22/14
f 25/21/21 36/36/24 31/34/23
f 41/40/40 43/41/41 44/42/42
f 46/43/43 48/44/44 45/45/45
f 50/46/46 52/47/47 49/48/48
f 54/49/49 56/50/50 53/51/51
f 57/52/52 59/53/53 60/54/54
f 62/55/55 64/56/56 61/57/57
f 66/58/58 68/59/59 65/60/60
f 70/61/61 72/62/62 69/63/63
f 74/64/64 76/65/65 73/66/66
f 78/67/67 80/68/68 77/69/69
f 82/70/70 84/71/71 81/72/72
f 86/73/73 88/74/74 85/75/75
f 73/66/66 81/72/72 74/64/64
f 42/76/76 60/54/54 59/53/53
f 49/48/48 64/56/56 63/77/77
f 67/78/78 45/45/45 68/59/59
f 53/51/51 72/62/62 71/79/79
f 58/80/80 76/65/65 75/81/81
f 62/55/55 80/68/68 79/82/82
f 83/83/83 65/60/60 84/71/71
f 70/61/61 88/74/74 87/84/84
f 56/50/50 43/85/41 42/86/76
f 45/87/45 54/49/49 53/51/51
f 41/88/40 50/46/46 49/48/48
f 52/47/47 47/89/85 46/90/43
f 58/91/80 72/62/62 59/92/53
f 65/93/60 71/79/79 70/61/61
f 62/55/55 60/94/54 63/77/77
f 61/57/57 67/95/78 66/96/58
f 85/75/75 75/97/81 74/64/64
f 86/73/73 84/98/71 87/84/84
f 78/67/67 76/99/65 79/82/82
f 77/69/69 83/100/83 82/70/70
f 56/50/50 59/92/53 72/62/62
f 68/101/59 53/51/51 71/79/79
f 41/88/40 63/77/77 60/94/54
f 64/56/56 46/90/43 67/95/78
f 69/63/63 75/97/81 88/74/74
f 70/61/61 84/98/71 65/93/60
f 57/102/52 79/82/82 76/99/65
f 66/96/58 80/68/68 61/57/57
f 73/66/66 77/69/69 82/70/70
f 81/72/72 85/75/75 74/64/64
f 89/103/86 91/104/87 92/105/88
f 93/106/89 92/105/88 94/107/90
f 93/106/89 96/108/91 95/109/92
f 97/110/93 96/108/91 98/111/94
f 99/112/95 98/111/94 100/113/96
f 99/112/95 102/114/97 101/115/98
f 101/115/98 104/116/99 103/117/100
f 105/118/101 104/116/99 106/119/102
f 105/118/101 108/120/103 107/121/104
f 107/121/104 91/104/87 90/122/105
f 105/118/101 99/112/95 103/117/100
f 95/109/92 107/121/104 89/103/86
f 107/121/104 90/122/105 89/103/86
f 89/103/86 93/106/89 95/109/92
f 95/109/92 97/110/93 99/112/95
f 103/117/100 99/112/95 101/115/98
f 110/123/106 112/124/107 109/125/86
f 109/125/86 114/126/108 113/127/109
f 113/127/109 116/128/110 115/129/111
f 117/130/93 116/128/110 118/131/112
f 119/132/95 118/131/112 120/133/96
f 119/132/95 122/134/113 121/135/98
f 121/135/98 124/136/114 123/137/115
f 123/137/115 126/138/116 125/139/117
f 127/140/104 126/138/116 128/141/118
f 110/123/106 128/141/118 111/142/119
f 123/137/115 127/140/104 119/132/95
f 115/129/111 127/140/104 109/125/86
f 127/140/104 110/123/106 109/125/86
f 109/125/86 113/127/109 115/129/111
f 115/129/111 117/130/93 119/132/95
f 123/137/115 119/132/95 121/135/98
f 2/1/1 3/37/26 4/2/2
f 6/4/4 7/143/4 8/5/4
f 8/5/4 7/143/4 9/7/4
f 11/9/4 12/20/4 13/10/4
f 14/11/4 13/10/4 15/12/4
f 5/6/5 8/5/5 18/14/6
f 10/8/7 19/38/37 20/16/8
f 11/9/10 14/11/10 22/17/10
f 16/13/11 23/39/39 24/19/12
f 11/9/4 10/8/4 9/7/4
f 15/12/4 6/4/4 5/6/4
f 25/21/13 19/38/37 10/8/7
f 26/22/14 23/39/39 16/13/11
f 18/14/6 27/29/16 28/23/16
f 17/15/6 28/23/16 29/24/16
f 20/16/8 31/34/36 32/26/17
f 18/14/9 32/26/17 33/27/18
f 35/30/19 36/36/38 26/22/14
f 37/31/20 35/30/19 17/15/15
f 21/18/4 22/17/4 24/19/21
f 39/33/22 32/26/22 31/34/23
f 40/35/22 31/34/23 36/36/24
f 39/33/25 40/35/30 3/37/26
f 29/24/27 28/23/33 1/3/3
f 3/37/26 37/31/31 38/32/28
f 1/3/3 34/28/34 33/27/29
f 40/35/30 35/30/120 37/31/31
f 39/33/25 2/1/1 33/27/29
f 28/23/33 27/29/121 34/28/34
f 29/24/27 4/2/2 38/32/28
f 31/34/36 20/16/8 19/38/37
f 36/36/38 24/19/12 23/39/39
f 25/21/21 24/19/21 36/36/24
f 41/40/40 42/76/76 43/41/41
f 46/43/43 47/144/85 48/44/44
f 50/46/46 51/145/122 52/47/47
f 54/49/49 55/146/123 56/50/50
f 57/52/52 58/80/80 59/53/53
f 62/55/55 63/77/77 64/56/56
f 66/58/58 67/78/78 68/59/59
f 70/61/61 71/79/79 72/62/62
f 74/64/64 75/81/81 76/65/65
f 78/67/67 79/82/82 80/68/68
f 82/70/70 83/83/83 84/71/71
f 86/73/73 87/84/84 88/74/74
f 73/66/66 82/70/70 81/72/72
f 42/76/76 41/40/40 60/54/54
f 49/48/48 52/47/47 64/56/56
f 67/78/78 46/43/43 45/45/45
f 53/51/51 56/50/50 72/62/62
f 58/80/80 57/52/52 76/65/65
f 62/55/55 61/57/57 80/68/68
f 83/83/83 66/58/58 65/60/60
f 70/61/61 69/63/63 88/74/74
f 56/50/50 55/146/123 43/85/41
f 45/87/45 48/147/44 54/49/49
f 41/88/40 44/148/42 50/46/46
f 52/47/47 51/145/122 47/89/85
f 58/91/80 69/63/63 72/62/62
f 65/93/60 68/101/59 71/79/79
f 62/55/55 57/102/52 60/94/54
f 61/57/57 64/56/56 67/95/78
f 85/75/75 88/74/74 75/97/81
f 86/73/73 81/72/72 84/98/71
f 78/67/67 73/66/66 76/99/65
f 77/69/69 80/68/68 83/100/83
f 56/50/50 42/86/76 59/92/53
f 68/101/59 45/87/45 53/51/51
f 41/88/40 49/48/48 63/77/77
f 64/56/56 52/47/47 46/90/43
f 69/63/63 58/91/80 75/97/81
f 70/61/61 87/84/84 84/98/71
f 57/102/52 62/55/55 79/82/82
f 66/96/58 83/100/83 80/68/68
f 73/66/66 78/67/67 77/69/69
f 81/72/72 86/73/73 85/75/75
f 89/103/86 90/122/105 91/104/87
f 93/106/89 89/103/86 92/105/88
f 93/106/89 94/107/90 96/108/91
f 97/110/93 95/109/92 96/108/91
f 99/112/95 97/110/93 98/111/94
f 99/112/95 100/113/96 102/114/97
f 101/115/98 102/114/97 104/116/99
f 105/118/101 103/117/100 104/116/99
f 105/118/101 106/119/102 108/120/103
f 107/121/104 108/120/103 91/104/87
f 105/118/101 107/121/104 99/112/95
f 95/109/92 99/112/95 107/121/104
f 110/123/106 111/142/119 112/124/107
f 109/125/86 112/124/107 114/126/108
f 113/127/109 114/126/108 116/128/110
f 117/130/93 115/129/111 116/128/110
f 119/132/95 117/130/93 118/131/112
f 119/132/95 120/133/96 122/134/113
f 121/135/98 122/134/113 124/136/114
f 123/137/115 124/136/114 126/138/116
f 127/140/104 125/139/117 126/138/116
f 110/123/106 127/140/104 128/141/118
f 123/137/115 125/139/117 127/140/104
f 115/129/111 119/132/95 127/140/104
